<?xml version="1.0" encoding="iso-8859-1"?>
<!-- Uploaded to: SVG Repo, www.svgrepo.com, Generator: SVG Repo Mixer Tools -->
<svg height="800px" width="800px" version="1.1" id="Layer_1" xmlns="http://www.w3.org/2000/svg" xmlns:xlink="http://www.w3.org/1999/xlink" 
	 viewBox="0 0 512 512" xml:space="preserve">
<path style="fill:#9ED368;" d="M0,256.006C0,397.402,114.606,512.004,255.996,512C397.394,512.004,512,397.402,512,256.006
	C512.009,114.61,397.394,0,255.996,0C114.606,0,0,114.614,0,256.006z"/>
<path style="fill:#8BC052;" d="M509.943,287.966c-0.048-0.049-0.083-0.11-0.135-0.156c-0.263-0.291-0.569-0.512-0.877-0.755
	c-0.244-0.308-84.561-84.625-84.868-84.869c-0.244-0.307-0.465-0.614-0.757-0.878c-0.343-0.382-111.519-111.484-112.159-111.94
	c-1.282-1.797-3.281-3.045-5.657-3.045H199.441c-3.904,0-7.07,3.163-7.07,7.069V199.44h-98.98c-3.904,0-7.07,3.162-7.07,7.07v98.979
	c0,2.378,1.248,4.375,3.045,5.657c0.457,0.641,102.937,103.005,103.004,103.091v4.371c0,2.378,1.248,4.377,3.045,5.658
	c0.457,0.641,84.228,84.412,84.869,84.868c0.439,0.615,0.962,1.125,1.57,1.569C400.553,498.802,495.258,405.819,509.943,287.966z"/>
<path style="fill:#F4F6F9;" d="M418.608,199.441H312.559V93.392c0-3.908-3.166-7.07-7.07-7.07H199.44c-3.904,0-7.07,3.163-7.07,7.07
	v106.049H93.392c-3.904,0-7.07,3.162-7.07,7.07v98.979c0,3.908,3.166,7.07,7.07,7.07h98.979v106.049c0,3.908,3.166,7.07,7.07,7.07
	H305.49c3.904,0,7.07-3.162,7.07-7.07V312.56h106.049c3.904,0,7.07-3.163,7.07-7.07v-98.979
	C425.678,202.603,422.513,199.441,418.608,199.441z M411.538,298.419H305.489c-3.904,0-7.07,3.163-7.07,7.07v106.049H206.51V305.489
	c0-3.908-3.166-7.07-7.07-7.07h-98.978V213.58h98.979c3.904,0,7.07-3.163,7.07-7.07V100.462h91.909v106.049
	c0,3.908,3.166,7.07,7.07,7.07h106.049v84.838H411.538z"/>
</svg>